M48
METRIC,LZ,000.000
;FILE_FORMAT=3:3
;TYPE=PLATED
;Layer: PTH_Through
;EasyEDA v6.5.50, 2025-04-28 15:30:03
;d29e8bbd84a64c809dbd0fd1d51e9294,1edd566ed00f4b82bd531d174b10065b,10
;Gerber Generator version 0.2
;Holesize 1 = 0.712 mm
T01C0.712
;Holesize 2 = 0.759 mm
T02C0.759
;Holesize 3 = 0.762 mm
T03C0.762
;Holesize 4 = 0.800 mm
T04C0.800
;Holesize 5 = 0.889 mm
T05C0.889
;Holesize 6 = 0.915 mm
T06C0.915
;Holesize 7 = 1.000 mm
T07C1.000
;Holesize 8 = 1.400 mm
T08C1.400
;Holesize 9 = 1.403 mm
T09C1.403
;Holesize 10 = 3.000 mm
T10C3.000
%
G05
G90
T01
X112395Y-005207
X112395Y-012827
X071120Y-020955
X078740Y-020955
X050292Y-034026
X042672Y-034026
X050292Y-029464
X042672Y-029464
X015875Y-012192
X015875Y-004572
T02
X050390Y-047117G85X050384Y-047117
X050390Y-044577G85X050384Y-044577
X050390Y-042037G85X050384Y-042037
X050390Y-039497G85X050384Y-039497
X042580Y-039497G85X042574Y-039497
X042580Y-042037G85X042574Y-042037
X042580Y-044577G85X042574Y-044577
X042580Y-047117G85X042574Y-047117
X065122Y-046990G85X065116Y-046990
X065122Y-044450G85X065116Y-044450
X065122Y-041910G85X065116Y-041910
X065122Y-039370G85X065116Y-039370
X057312Y-039370G85X057306Y-039370
X057312Y-041910G85X057306Y-041910
X057312Y-044450G85X057306Y-044450
X057312Y-046990G85X057306Y-046990
X036293Y-047244G85X036287Y-047244
X036293Y-044704G85X036287Y-044704
X036293Y-042164G85X036287Y-042164
X036293Y-039624G85X036287Y-039624
X028483Y-039624G85X028477Y-039624
X028483Y-042164G85X028477Y-042164
X028483Y-044704G85X028477Y-044704
X028483Y-047244G85X028477Y-047244
T03
X125857Y-028829
X125857Y-031369
X125857Y-026289
T04
X025527Y-003556
X025527Y-021590
X065659Y-021590
X065659Y-003556
X021082Y-017780
X003048Y-017780
X003048Y-057912
X021082Y-057912
T05
X107823Y-005207
X084963Y-005207
X107823Y-007747
X107823Y-010287
X107823Y-050927
X084963Y-050927
X084963Y-007747
X084963Y-010287
X107823Y-048387
X107823Y-012827
X107823Y-015367
X107823Y-017907
X107823Y-020447
X107823Y-022987
X107823Y-025527
X107823Y-028067
X107823Y-030607
X107823Y-033147
X107823Y-035687
X107823Y-038227
X107823Y-040767
X107823Y-043307
X107823Y-045847
X084963Y-012827
X084963Y-015367
X084963Y-017907
X084963Y-020447
X084963Y-022987
X084963Y-025527
X084963Y-028067
X084963Y-030607
X084963Y-033147
X084963Y-035687
X084963Y-038227
X084963Y-040767
X084963Y-043307
X084963Y-045847
X084963Y-048387
T06
X125921Y-038989
X125921Y-041529
X125921Y-044069
X125921Y-046609
X125921Y-049149
X125921Y-051689
X115761Y-051689
X115761Y-049149
X115761Y-046609
X115761Y-044069
X115761Y-041529
X115761Y-038989
X110998Y-041275
X121793Y-028829
X123698Y-006096
X107188Y-068072
X074930Y-008001
X036322Y-035687
X081788Y-017907
X073152Y-012065
X079883Y-038354
X054737Y-035052
X079248Y-014986
X097663Y-054610
X081788Y-020320
X038989Y-044704
X050292Y-037084
X041402Y-037084
X041021Y-065151
X010287Y-068326
X039243Y-082931
X059309Y-050800
X026416Y-083693
X068834Y-086233
X053975Y-041529
X048387Y-074295
X024765Y-037338
X073914Y-072771
X030988Y-025019
X077978Y-057912
T07
X022098Y-079756
X017018Y-079756
X019558Y-079756
X048387Y-079883
X043307Y-079883
X045847Y-079883
X073914Y-079756
X068834Y-079756
X071374Y-079756
X077216Y-040894
X077216Y-038354
X077216Y-035814
X077216Y-033274
X077216Y-030734
X077216Y-028194
X077216Y-025654
X069596Y-040894
X069596Y-038354
X069596Y-035814
X069596Y-033274
X069596Y-030734
X069596Y-028194
X069596Y-025654
T08
X030480Y-068268
X030480Y-054668
X036830Y-054668
X036830Y-068268
X054483Y-054541
X054483Y-068141
X048006Y-068141
X048006Y-054541
X071501Y-054922
X071501Y-068522
X064897Y-068522
X064897Y-054922
X009017Y-079502
X003937Y-079502
X006477Y-079502
X035052Y-079629
X029972Y-079629
X032512Y-079629
X061214Y-079629
X056134Y-079629
X058674Y-079629
T09
X010033Y-006858
X005033Y-006858
X112268Y-078232
X117268Y-078232
X122301Y-078232
X127301Y-078232
X092202Y-078232
X097202Y-078232
X082169Y-078232
X087169Y-078232
X102235Y-078232
X107235Y-078232
T10
X029591Y-004318
X060833Y-020828
X020320Y-021844
X003810Y-053086
M30
