G04 Layer: BottomLayer*
G04 EasyEDA v6.5.50, 2025-04-28 15:30:03*
G04 d29e8bbd84a64c809dbd0fd1d51e9294,1edd566ed00f4b82bd531d174b10065b,10*
G04 Gerber Generator version 0.2*
G04 Scale: 100 percent, Rotated: No, Reflected: No *
G04 Dimensions in millimeters *
G04 leading zeros omitted , absolute positions ,4 integer and 5 decimal *
%FSLAX45Y45*%
%MOMM*%

%AMMACRO1*21,1,$1,$2,0,0,$3*%
%ADD10C,0.8000*%
%ADD11C,0.7000*%
%ADD12R,3.0000X3.0000*%
%ADD13O,2.3800054000000004X4.28498*%
%ADD14C,2.4892*%
%ADD15C,2.2000*%
%ADD16R,1.2670X1.2670*%
%ADD17C,1.2670*%
%ADD18O,1.9999959999999999X2.999994*%
%ADD19MACRO1,2.0015X2.4994X0.0000*%
%ADD20O,1.9999959999999999X2.4999949999999997*%
%ADD21C,1.5240*%
%ADD22R,2.0000X1.5000*%
%ADD23O,1.9999959999999999X1.499997*%
%ADD24R,1.5240X1.5240*%
%ADD25C,4.0000*%
%ADD26C,0.0135*%

%LPD*%
D10*
X304800Y-5791200D02*
G01*
X1346200Y-5791200D01*
X1841500Y-5295900D01*
X1841500Y-3429000D01*
X2514600Y-2755900D01*
X4838700Y-2755900D01*
X5029200Y-2946400D01*
X1587500Y-457200D02*
G01*
X2133600Y-457200D01*
X2235200Y-355600D01*
X2552700Y-355600D01*
X503173Y-685800D02*
G01*
X503173Y-423926D01*
X711200Y-215900D01*
X1346200Y-215900D01*
X1587500Y-457200D01*
X1003300Y-685800D02*
G01*
X1003300Y-1016000D01*
X1206500Y-1219200D01*
X1587500Y-1219200D01*
D11*
X2848102Y-4470400D02*
G01*
X2374900Y-4943602D01*
X2374900Y-5943600D01*
X2247900Y-6070600D01*
X736600Y-6070600D01*
X-38100Y-6845300D01*
X-38100Y-8293100D01*
X495300Y-8826500D01*
X5638800Y-8826500D01*
X6121400Y-8343900D01*
X6121400Y-7962900D01*
D10*
X7721600Y-3835400D02*
G01*
X7607300Y-3835400D01*
X7518400Y-3924300D01*
X7518400Y-4673600D01*
X7061200Y-5130800D01*
X6375400Y-5130800D01*
X6210300Y-5295900D01*
X5876797Y-5295900D01*
X5038597Y-4457700D01*
D11*
X5731002Y-4445000D02*
G01*
X5930900Y-4644897D01*
X5930900Y-5080000D01*
X5731002Y-3937000D02*
G01*
X5515102Y-4152900D01*
X5397500Y-4152900D01*
D10*
X7988300Y-3835400D02*
G01*
X8166100Y-3657600D01*
X8166100Y-2578100D01*
X8445500Y-2298700D01*
X8496300Y-2298700D01*
X7721600Y-4089400D02*
G01*
X8115300Y-4089400D01*
X8293100Y-3911600D01*
X8293100Y-2641600D01*
X8382000Y-2552700D01*
X8496300Y-2552700D01*
X11576050Y-4152900D02*
G01*
X11734800Y-3994150D01*
X11734800Y-3822700D01*
X11226800Y-3314700D01*
X10782300Y-3314700D01*
X11576050Y-4914900D02*
G01*
X11772900Y-4914900D01*
X12128500Y-4559300D01*
X12128500Y-3873500D01*
X12865100Y-3136900D01*
X12865100Y-2463800D01*
X12649200Y-2247900D01*
X12052300Y-2247900D01*
X11239500Y-3060700D01*
X10782300Y-3060700D01*
D11*
X647700Y-7950200D02*
G01*
X647700Y-8216900D01*
X558800Y-8305800D01*
X406400Y-8305800D01*
X215900Y-8115300D01*
X215900Y-7086600D01*
X469900Y-6832600D01*
X1028700Y-6832600D01*
D10*
X647700Y-7950200D02*
G01*
X647700Y-7785100D01*
X762000Y-7670800D01*
X1028700Y-7670800D01*
X1104900Y-7747000D01*
X1104900Y-8432800D01*
X1308100Y-8636000D01*
X3251200Y-8636000D01*
X3251200Y-7962900D01*
X1587500Y-2362200D02*
G01*
X1308100Y-2362200D01*
X12700Y-3657600D01*
X12700Y-6591300D01*
X-165100Y-6769100D01*
X-165100Y-8369300D01*
X419100Y-8953500D01*
X6553200Y-8953500D01*
X6883400Y-8623300D01*
D11*
X3683000Y-5466842D02*
G01*
X3683000Y-6096000D01*
X4102100Y-6515100D01*
D10*
X12592050Y-4660900D02*
G01*
X12839700Y-4660900D01*
X12954000Y-4775200D01*
X12954000Y-8089900D01*
X12598400Y-8445500D01*
X10439400Y-8445500D01*
X10223500Y-8229600D01*
X10223500Y-7823200D01*
X7137400Y-7975600D02*
G01*
X7137400Y-8255000D01*
X7340600Y-8458200D01*
X7962900Y-8458200D01*
X8216900Y-8204200D01*
X8216900Y-7823200D01*
D11*
X8717025Y-7823200D02*
G01*
X8717025Y-7129526D01*
X8191500Y-6604000D01*
X5918200Y-6604000D01*
X5708141Y-6814058D01*
X5448300Y-6814058D01*
X1955800Y-8166100D02*
G01*
X2032000Y-8242300D01*
X2362200Y-8242300D01*
X2501900Y-8102600D01*
X2501900Y-7658100D01*
X2794000Y-7366000D01*
X3886200Y-7366000D01*
X4813300Y-6438900D01*
X8559800Y-6438900D01*
X9220200Y-7099300D01*
X9220200Y-7823200D01*
D10*
X11726925Y-7823200D02*
G01*
X11722100Y-7818373D01*
X11722100Y-7124700D01*
X12255500Y-6591300D01*
X12255500Y-4191000D01*
X12547600Y-3898900D01*
X12592050Y-3898900D01*
X12230100Y-7823200D02*
G01*
X12230100Y-6985000D01*
X12407900Y-6807200D01*
X12407900Y-4337050D01*
X12592050Y-4152900D01*
X6565900Y-2159000D02*
G01*
X6565900Y-965200D01*
X7366000Y-165100D01*
X10007600Y-165100D01*
X10350500Y-508000D01*
X10350500Y-1638300D01*
X10502900Y-1790700D01*
X10782300Y-1790700D01*
X6565900Y-355600D02*
G01*
X6896100Y-355600D01*
X7277100Y25400D01*
X10236200Y25400D01*
X10782300Y-520700D01*
X7721600Y-3073400D02*
G01*
X7569200Y-3073400D01*
X7467600Y-2971800D01*
X7467600Y-1511300D01*
X7696200Y-1282700D01*
X8077200Y-1282700D01*
X8331200Y-1536700D01*
X8496300Y-1536700D01*
X7721600Y-3327400D02*
G01*
X7581900Y-3327400D01*
X7366000Y-3543300D01*
X7366000Y-4610100D01*
X7048500Y-4927600D01*
X6362700Y-4927600D01*
X6184900Y-4749800D01*
X6184900Y-4572000D01*
X6311900Y-4445000D01*
X6511797Y-4445000D01*
X6511899Y-3937000D02*
G01*
X6743700Y-4168800D01*
X6743700Y-4318000D01*
X6832600Y-4406900D01*
X7035800Y-4406900D01*
X7200900Y-4241800D01*
X7200900Y-3035300D01*
X7315200Y-2921000D01*
X7315200Y-1206500D01*
X11576050Y-4660900D02*
G01*
X11709400Y-4660900D01*
X12001500Y-4368800D01*
X12001500Y-2781300D01*
X12153900Y-2628900D01*
X12585700Y-2628900D01*
X11576050Y-4406900D02*
G01*
X11722100Y-4406900D01*
X11849100Y-4279900D01*
X11849100Y-2692400D01*
X12141200Y-2400300D01*
X12573000Y-2400300D01*
X12738100Y-2565400D01*
X12738100Y-2984500D01*
X12585700Y-3136900D01*
D11*
X7391400Y-7277100D02*
G01*
X7391400Y-7975600D01*
X5448300Y-6057900D02*
G01*
X5448300Y-6096000D01*
X5448300Y-5454142D02*
G01*
X5448300Y-6057900D01*
X7150100Y-6852208D02*
G01*
X7137400Y-6864908D01*
X7137400Y-7975600D01*
X6489700Y-5492191D02*
G01*
X6610908Y-5492191D01*
X6832600Y-5270500D01*
X7937500Y-5270500D01*
X9474200Y-6807200D01*
X9474200Y-8356600D01*
X9207500Y-8623300D01*
X6883400Y-8623300D01*
X7150100Y-5492191D02*
G01*
X7150100Y-5943600D01*
X6997700Y-6096000D01*
X4521200Y-6096000D01*
X4102100Y-6515100D01*
X4800600Y-5454091D02*
G01*
X4800600Y-5207000D01*
D10*
X2697479Y-8636000D02*
G01*
X5588000Y-8636000D01*
X5867400Y-8356600D01*
X5867400Y-7962900D01*
D11*
X4838700Y-7429500D02*
G01*
X4838700Y-7988300D01*
D10*
X3628900Y-4216400D02*
G01*
X4136900Y-3708400D01*
X4140200Y-3708400D01*
D11*
X6883400Y-7975600D02*
G01*
X6883400Y-8623300D01*
D10*
X2641600Y-8369300D02*
G01*
X2730500Y-8280400D01*
X2730500Y-7785100D01*
X3022600Y-7493000D01*
X3644900Y-7493000D01*
X4140200Y-7988300D01*
X4330700Y-7988300D01*
X1701800Y-7975600D02*
G01*
X1701800Y-8216900D01*
X1854200Y-8369300D01*
X2641600Y-8369300D01*
X2997200Y-7962900D02*
G01*
X2997200Y-7772400D01*
X3111500Y-7658100D01*
X3568700Y-7658100D01*
X4140200Y-8229600D01*
X4457700Y-8229600D01*
X4584700Y-8102600D01*
X4584700Y-7988300D01*
X1587500Y-1219200D02*
G01*
X1028674Y-1778025D01*
X304774Y-1778025D01*
X1587500Y-457200D02*
G01*
X1587500Y-787400D01*
X2108200Y-1308100D01*
X2108200Y-1778000D01*
X1587500Y-1219200D02*
G01*
X1587500Y-2362200D01*
X1841500Y-2616200D01*
X2336800Y-2616200D01*
X2552700Y-2400300D01*
X2552700Y-2159000D01*
X11239500Y-520700D02*
G01*
X10934700Y-520700D01*
X10782300Y-520700D01*
X11239500Y-1282700D02*
G01*
X11239500Y-1612900D01*
X11061700Y-1790700D01*
X10782300Y-1790700D01*
X10782300Y-3568700D02*
G01*
X10909300Y-3568700D01*
X11239500Y-3898900D01*
X11576050Y-3898900D01*
X4267200Y-2946400D02*
G01*
X4267200Y-3402584D01*
X5029200Y-2946400D02*
G01*
X5029200Y-3402584D01*
X5029200Y-3402584D02*
G01*
X4827015Y-3402584D01*
X4724400Y-3505200D01*
X4724400Y-4076700D01*
X4851400Y-4203700D01*
X5038600Y-4203700D01*
X7721600Y-2565400D02*
G01*
X7721600Y-2247900D01*
X7874000Y-2095500D01*
X6489700Y-6852208D02*
G01*
X6489700Y-6852208D01*
X7150100Y-6852208D01*
X4800600Y-6814108D02*
G01*
X5448300Y-6814108D01*
X5448300Y-6814108D01*
X3048000Y-6826808D02*
G01*
X3683000Y-6826808D01*
X12369800Y-609600D02*
G01*
X12280900Y-520700D01*
X11239500Y-520700D01*
X12592050Y-4406900D02*
G01*
X12827000Y-4406900D01*
X12979400Y-4254500D01*
X12979400Y-1219200D01*
X12369800Y-609600D01*
X10782300Y-5092700D02*
G01*
X11125200Y-5092700D01*
X11239500Y-4978400D01*
X11239500Y-4559300D01*
X11391900Y-4406900D01*
X11576050Y-4406900D01*
X10782300Y-4584700D02*
G01*
X10960100Y-4584700D01*
X11099800Y-4445000D01*
X11099800Y-4127500D01*
X12179300Y-2882900D02*
G01*
X12585700Y-2882900D01*
X12592050Y-4914900D02*
G01*
X12725400Y-4914900D01*
X12814300Y-5003800D01*
X12814300Y-6870700D01*
X12730099Y-6954901D01*
X12730099Y-7823200D01*
X10718800Y-6807200D02*
G01*
X10723499Y-6811898D01*
X10723499Y-7823200D01*
X393700Y-7950200D02*
G01*
X393700Y-7721600D01*
X647700Y-7467600D01*
X1727200Y-7467600D01*
X1955800Y-7696200D01*
X1955800Y-7975600D01*
X1727200Y-7467600D02*
G01*
X2367991Y-6826808D01*
X3048000Y-6826808D01*
X5613400Y-7962900D02*
G01*
X5613400Y-7366000D01*
X6127191Y-6852208D01*
X6489700Y-6852208D01*
X6959600Y-4089400D02*
G01*
X6769100Y-3898900D01*
X6769100Y-2438400D01*
X7112000Y-2095500D01*
X3628999Y-3962400D02*
G01*
X3632200Y-3959199D01*
X3632200Y-3568700D01*
X5038699Y-3949700D02*
G01*
X5473700Y-3514699D01*
X5473700Y-3505200D01*
X8496300Y-1790700D02*
G01*
X8343900Y-1790700D01*
X8178800Y-1790700D01*
X8496300Y-1282700D02*
G01*
X8293100Y-1282700D01*
X7810500Y-800100D01*
X7493000Y-800100D01*
X7874000Y-2095500D02*
G01*
X7924800Y-2044700D01*
X7924800Y-1498600D01*
X10782300Y-5092700D02*
G01*
X10414000Y-5092700D01*
X9842500Y-4521200D01*
X9842500Y-571500D01*
X9626600Y-355600D01*
X7454900Y-355600D01*
X7112000Y-698500D01*
X7112000Y-2095500D01*
X11576050Y-4660900D02*
G01*
X11531600Y-4660900D01*
X11404600Y-4787900D01*
X11404600Y-5016500D01*
X10960100Y-5461000D01*
X8864600Y-5461000D01*
X8496300Y-5092700D01*
X3628999Y-4470400D02*
G01*
X3898900Y-4470400D01*
X4610100Y-4076700D02*
G01*
X4610100Y-4241800D01*
X4699000Y-4330700D01*
X5591302Y-4330700D01*
X5731002Y-4191000D01*
X4267200Y-3402584D02*
G01*
X4520184Y-3402584D01*
X4610100Y-3492500D01*
X4610100Y-4076700D01*
X4257802Y-4203445D02*
G01*
X4610100Y-4203445D01*
X5038597Y-4203700D02*
G01*
X5470397Y-3771900D01*
X6092697Y-3771900D01*
X6511797Y-4191000D01*
X4724400Y-3692611D02*
G01*
X4740188Y-3708400D01*
X5029200Y-3708400D01*
X4584700Y-7988300D02*
G01*
X4584700Y-7030008D01*
X4800600Y-6814108D01*
D11*
X1955800Y-7975600D02*
G01*
X1955800Y-8166100D01*
D10*
X2108200Y-5791200D02*
G01*
X2108200Y-3530600D01*
X2387600Y-3251200D01*
X3962400Y-3251200D01*
X4267200Y-2946400D01*
X2108200Y-1778025D02*
G01*
X2832125Y-1778025D01*
X3098800Y-2044700D01*
X3098800Y-2501900D01*
X7150100Y-5492191D02*
G01*
X7498791Y-5492191D01*
X7797800Y-5791200D01*
D11*
X3505200Y-7962900D02*
G01*
X3505200Y-8191500D01*
X3606800Y-8293100D01*
X3924300Y-8293100D01*
X3048000Y-5466842D02*
G01*
X3307841Y-5207000D01*
X5562600Y-5207000D01*
X5854700Y-5499100D01*
X6482841Y-5499100D01*
X6489700Y-5492242D01*
X2209800Y-7975600D02*
G01*
X2209800Y-7683500D01*
X2667000Y-7226300D01*
X3746500Y-7226300D01*
X3987800Y-6985000D01*
X3987800Y-6642100D01*
X3695700Y-6350000D01*
X3073400Y-6350000D01*
X2832100Y-6108700D01*
X2832100Y-5359400D01*
X3124200Y-5067300D01*
X4102100Y-5067300D01*
X4419600Y-4749800D01*
X4419600Y-4432300D01*
X4318000Y-4330700D01*
X4165600Y-4330700D01*
X4076700Y-4241800D01*
X4076700Y-4025900D01*
X4152900Y-3949700D01*
X4257802Y-3949700D01*
D10*
X901700Y-7950200D02*
G01*
X901700Y-8394700D01*
X774700Y-8521700D01*
X406400Y-8521700D01*
X101600Y-8216900D01*
X101600Y-7010400D01*
X469900Y-6642100D01*
X2413000Y-6642100D01*
X2705100Y-6350000D01*
X2705100Y-5270500D01*
X3048000Y-4927600D01*
X3787902Y-4927600D01*
X4257802Y-4457700D01*
D11*
X2848102Y-3962400D02*
G01*
X2619502Y-3733800D01*
X2476500Y-3733800D01*
D10*
X2848102Y-4216400D02*
G01*
X2489200Y-4216400D01*
X2260600Y-3987800D01*
X2260600Y-3695700D01*
X2553715Y-3402584D01*
X4267200Y-3402584D01*
X7721600Y-2819400D02*
G01*
X7912100Y-2628900D01*
X7912100Y-2400300D01*
X8178800Y-2133600D01*
X8178800Y-2032000D01*
X7721600Y-3581400D02*
G01*
X7912100Y-3581400D01*
X8039100Y-3454400D01*
X8039100Y-2501900D01*
X8496300Y-2044700D01*
D12*
G01*
X2552725Y-355625D03*
G01*
X2552725Y-2159025D03*
G01*
X6565925Y-2159025D03*
G01*
X6565925Y-355625D03*
G01*
X2108200Y-1778025D03*
G01*
X304800Y-1778025D03*
G01*
X304800Y-5791225D03*
G01*
X2108200Y-5791225D03*
D13*
G01*
X1003300Y-685800D03*
G01*
X503301Y-685800D03*
G01*
X11226800Y-7823200D03*
G01*
X11726799Y-7823200D03*
G01*
X12230100Y-7823200D03*
G01*
X12730099Y-7823200D03*
G01*
X9220200Y-7823200D03*
G01*
X9720199Y-7823200D03*
G01*
X8216900Y-7823200D03*
G01*
X8716899Y-7823200D03*
G01*
X10223500Y-7823200D03*
G01*
X10723499Y-7823200D03*
D14*
G01*
X11239500Y-520700D03*
G01*
X11239500Y-1282700D03*
G01*
X7112000Y-2095500D03*
G01*
X7874000Y-2095500D03*
G01*
X5029200Y-3402584D03*
G01*
X4267200Y-3402584D03*
G01*
X5029200Y-2946400D03*
G01*
X4267200Y-2946400D03*
G01*
X1587500Y-1219200D03*
G01*
X1587500Y-457200D03*
D15*
G01*
X3048000Y-6826808D03*
G01*
X3048000Y-5466791D03*
G01*
X3683000Y-5466791D03*
G01*
X3683000Y-6826808D03*
G01*
X5448300Y-5454091D03*
G01*
X5448300Y-6814108D03*
G01*
X4800600Y-6814108D03*
G01*
X4800600Y-5454091D03*
G01*
X7150100Y-5492191D03*
G01*
X7150100Y-6852208D03*
G01*
X6489700Y-6852208D03*
G01*
X6489700Y-5492191D03*
D16*
G01*
X5038699Y-4711700D03*
D17*
G01*
X5038699Y-4457700D03*
G01*
X5038699Y-4203700D03*
G01*
X5038699Y-3949700D03*
G01*
X4257700Y-3949700D03*
G01*
X4257700Y-4203700D03*
G01*
X4257700Y-4457700D03*
G01*
X4257700Y-4711700D03*
D16*
G01*
X6511899Y-4699000D03*
D17*
G01*
X6511899Y-4445000D03*
G01*
X6511899Y-4191000D03*
G01*
X6511899Y-3937000D03*
G01*
X5730900Y-3937000D03*
G01*
X5730900Y-4191000D03*
G01*
X5730900Y-4445000D03*
G01*
X5730900Y-4699000D03*
D16*
G01*
X3628999Y-4724400D03*
D17*
G01*
X3628999Y-4470400D03*
G01*
X3628999Y-4216400D03*
G01*
X3628999Y-3962400D03*
G01*
X2848000Y-3962400D03*
G01*
X2848000Y-4216400D03*
G01*
X2848000Y-4470400D03*
G01*
X2848000Y-4724400D03*
D18*
G01*
X2209800Y-7975600D03*
G01*
X1701800Y-7975600D03*
G01*
X1955800Y-7975600D03*
G01*
X4838700Y-7988300D03*
G01*
X4330700Y-7988300D03*
G01*
X4584700Y-7988300D03*
G01*
X7391400Y-7975600D03*
G01*
X6883400Y-7975600D03*
G01*
X7137400Y-7975600D03*
D19*
G01*
X901700Y-7950200D03*
D20*
G01*
X393700Y-7950200D03*
G01*
X647700Y-7950200D03*
D19*
G01*
X3505200Y-7962900D03*
D20*
G01*
X2997200Y-7962900D03*
G01*
X3251200Y-7962900D03*
D19*
G01*
X6121400Y-7962900D03*
D20*
G01*
X5613400Y-7962900D03*
G01*
X5867400Y-7962900D03*
D21*
G01*
X12585700Y-2882900D03*
G01*
X12585700Y-3136900D03*
G01*
X12585700Y-2628900D03*
D22*
G01*
X7721600Y-4089400D03*
D23*
G01*
X7721600Y-3835400D03*
G01*
X7721600Y-3581400D03*
G01*
X7721600Y-3327400D03*
G01*
X7721600Y-3073400D03*
G01*
X7721600Y-2819400D03*
G01*
X7721600Y-2565400D03*
G01*
X6959600Y-4089400D03*
G01*
X6959600Y-3835400D03*
G01*
X6959600Y-3581400D03*
G01*
X6959600Y-3327400D03*
G01*
X6959600Y-3073400D03*
G01*
X6959600Y-2819400D03*
G01*
X6959600Y-2565400D03*
D21*
G01*
X12592050Y-3898900D03*
G01*
X12592050Y-4152900D03*
G01*
X12592050Y-4406900D03*
G01*
X12592050Y-4660900D03*
G01*
X12592050Y-4914900D03*
G01*
X12592050Y-5168900D03*
G01*
X11576050Y-5168900D03*
G01*
X11576050Y-4914900D03*
G01*
X11576050Y-4660900D03*
G01*
X11576050Y-4406900D03*
G01*
X11576050Y-4152900D03*
G01*
X11576050Y-3898900D03*
G01*
X10782300Y-520700D03*
G01*
X8496300Y-520700D03*
G01*
X10782300Y-774700D03*
G01*
X10782300Y-1028700D03*
D24*
G01*
X10782300Y-5092700D03*
D21*
G01*
X8496300Y-5092674D03*
G01*
X8496300Y-774700D03*
G01*
X8496300Y-1028700D03*
G01*
X10782300Y-4838700D03*
G01*
X10782300Y-1282700D03*
G01*
X10782300Y-1536700D03*
G01*
X10782300Y-1790700D03*
G01*
X10782300Y-2044700D03*
G01*
X10782300Y-2298700D03*
G01*
X10782300Y-2552700D03*
G01*
X10782300Y-2806700D03*
G01*
X10782300Y-3060700D03*
G01*
X10782300Y-3314700D03*
G01*
X10782300Y-3568700D03*
G01*
X10782300Y-3822700D03*
G01*
X10782300Y-4076700D03*
G01*
X10782300Y-4330700D03*
G01*
X10782300Y-4584700D03*
G01*
X8496300Y-1282700D03*
G01*
X8496300Y-1536700D03*
G01*
X8496300Y-1790700D03*
G01*
X8496300Y-2044700D03*
G01*
X8496300Y-2298700D03*
G01*
X8496300Y-2552700D03*
G01*
X8496300Y-2806700D03*
G01*
X8496300Y-3060700D03*
G01*
X8496300Y-3314700D03*
G01*
X8496300Y-3568700D03*
G01*
X8496300Y-3822700D03*
G01*
X8496300Y-4076700D03*
G01*
X8496300Y-4330700D03*
G01*
X8496300Y-4584700D03*
G01*
X8496300Y-4838700D03*
G01*
X11099800Y-4127500D03*
G01*
X12179300Y-2882900D03*
G01*
X12369800Y-609600D03*
G01*
X10718800Y-6807200D03*
G01*
X7493000Y-800100D03*
G01*
X3632200Y-3568700D03*
G01*
X8178800Y-1790700D03*
G01*
X7315200Y-1206500D03*
G01*
X7988300Y-3835400D03*
G01*
X5473700Y-3505200D03*
G01*
X7924800Y-1498600D03*
G01*
X9766300Y-5461000D03*
G01*
X8178800Y-2032000D03*
G01*
X3898900Y-4470400D03*
G01*
X5029200Y-3708400D03*
G01*
X4140200Y-3708400D03*
G01*
X4102100Y-6515100D03*
G01*
X1028700Y-6832600D03*
G01*
X3924300Y-8293100D03*
G01*
X5930900Y-5080000D03*
G01*
X2641600Y-8369300D03*
G01*
X6883400Y-8623300D03*
G01*
X5397500Y-4152900D03*
G01*
X4838700Y-7429500D03*
G01*
X2476500Y-3733800D03*
G01*
X7391400Y-7277100D03*
G01*
X3098800Y-2501900D03*
G01*
X7797800Y-5791200D03*
D25*
G01*
X2959100Y-431800D03*
G01*
X6083300Y-2082800D03*
G01*
X2032000Y-2184400D03*
G01*
X381000Y-5308600D03*
M02*
