G04 Layer: TopLayer*
G04 EasyEDA v6.5.50, 2025-04-28 15:30:03*
G04 d29e8bbd84a64c809dbd0fd1d51e9294,1edd566ed00f4b82bd531d174b10065b,10*
G04 Gerber Generator version 0.2*
G04 Scale: 100 percent, Rotated: No, Reflected: No *
G04 Dimensions in millimeters *
G04 leading zeros omitted , absolute positions ,4 integer and 5 decimal *
%FSLAX45Y45*%
%MOMM*%

%AMMACRO1*21,1,$1,$2,0,0,$3*%
%ADD10C,0.7000*%
%ADD11C,0.8000*%
%ADD12R,3.0000X3.0000*%
%ADD13O,2.3800054000000004X4.28498*%
%ADD14C,2.4892*%
%ADD15C,2.2000*%
%ADD16R,1.2670X1.2670*%
%ADD17C,1.2670*%
%ADD18O,1.9999959999999999X2.999994*%
%ADD19MACRO1,2.0015X2.4994X0.0000*%
%ADD20O,1.9999959999999999X2.4999949999999997*%
%ADD21C,1.5240*%
%ADD22R,2.0000X1.5000*%
%ADD23O,1.9999959999999999X1.499997*%
%ADD24R,1.5240X1.5240*%
%ADD25C,4.0000*%
%ADD26C,0.0155*%

%LPD*%
D10*
X3924300Y-8293100D02*
G01*
X3924300Y-7251700D01*
X4356100Y-6819900D01*
X4356100Y-5321300D01*
X4597400Y-5080000D01*
X5930900Y-5080000D01*
X2641600Y-8369300D02*
G01*
X2908300Y-8636000D01*
X6883400Y-8636000D01*
X6883400Y-8623300D01*
D11*
X8178800Y-2032000D02*
G01*
X8178800Y-4330700D01*
X7594600Y-4914900D01*
X4102100Y-4914900D01*
X3898900Y-4711700D01*
X3898900Y-4470400D01*
X11099800Y-4127500D02*
G01*
X11099800Y-3073400D01*
X11290300Y-2882900D01*
X12179300Y-2882900D01*
X12369800Y-609600D02*
G01*
X12852400Y-1092200D01*
X12852400Y-6019800D01*
X12065000Y-6807200D01*
X10718800Y-6807200D01*
X3632200Y-3568700D02*
G01*
X3632200Y-2019300D01*
X4851400Y-800100D01*
X7493000Y-800100D01*
X7315200Y-1206500D02*
G01*
X7899400Y-1790700D01*
X8178800Y-1790700D01*
X7924800Y-1498600D02*
G01*
X7912100Y-1485900D01*
X7912100Y-609600D01*
X8204200Y-317500D01*
X9334500Y-317500D01*
X9766300Y-749300D01*
X9766300Y-5461000D01*
X7988300Y-3835400D02*
G01*
X7988300Y-4267200D01*
X7721600Y-4533900D01*
X6908800Y-4533900D01*
X6731000Y-4356100D01*
X6731000Y-3810000D01*
X6426200Y-3505200D01*
X5473700Y-3505200D01*
D10*
X5397500Y-4152900D02*
G01*
X5397500Y-3898900D01*
X5245100Y-3746500D01*
X5245100Y-3429000D01*
X5410200Y-3263900D01*
X5410200Y-2768600D01*
X5219700Y-2578100D01*
X4051300Y-2578100D01*
X3822700Y-2806700D01*
X4102100Y-6515100D02*
G01*
X1346200Y-6515100D01*
X1028700Y-6832600D01*
X2476500Y-3733800D02*
G01*
X1879600Y-3733800D01*
X1333500Y-4279900D01*
X1333500Y-5422900D01*
X241300Y-6515100D01*
X241300Y-7175500D01*
X635000Y-7569200D01*
X1155700Y-7569200D01*
X1333500Y-7747000D01*
X1333500Y-8369300D01*
X1917700Y-8953500D01*
X7416800Y-8953500D01*
X7785100Y-8585200D01*
X7785100Y-7670800D01*
X7391400Y-7277100D01*
D11*
X3098800Y-2501900D02*
G01*
X3098800Y-3441700D01*
X2413000Y-4127500D01*
X1968500Y-4127500D01*
X1536700Y-4559300D01*
X1536700Y-5537200D01*
X431800Y-6642100D01*
X431800Y-7086600D01*
X762000Y-7416800D01*
X2044700Y-7416800D01*
X2489200Y-7861300D01*
X2489200Y-8191500D01*
X2374900Y-8305800D01*
X2374900Y-8597900D01*
X2590800Y-8813800D01*
X7315200Y-8813800D01*
X7645400Y-8483600D01*
X7645400Y-7912100D01*
X7137400Y-7404100D01*
X7137400Y-7188200D01*
X7480300Y-6845300D01*
X7480300Y-6108700D01*
X7797800Y-5791200D01*
X5029200Y-3708400D02*
G01*
X4140200Y-3708400D01*
D10*
X3822700Y-2806700D02*
G01*
X3822700Y-3670300D01*
X3708400Y-3784600D01*
X3530600Y-3784600D01*
X3187700Y-4127500D01*
X3187700Y-4902200D01*
X2895600Y-5194300D01*
X2692400Y-5194300D01*
X2501900Y-5384800D01*
X2501900Y-6045200D01*
X2235200Y-6311900D01*
X1003300Y-6311900D01*
X635000Y-6680200D01*
X635000Y-6946900D01*
X914400Y-7226300D01*
X2108200Y-7226300D01*
X2730500Y-7848600D01*
X2730500Y-8102600D01*
X3111500Y-8483600D01*
X4762500Y-8483600D01*
X5067300Y-8178800D01*
X5067300Y-7658100D01*
X4838700Y-7429500D01*
D12*
G01*
X2552725Y-355625D03*
G01*
X2552725Y-2159025D03*
G01*
X6565925Y-2159025D03*
G01*
X6565925Y-355625D03*
G01*
X2108200Y-1778025D03*
G01*
X304800Y-1778025D03*
G01*
X304800Y-5791225D03*
G01*
X2108200Y-5791225D03*
D13*
G01*
X1003300Y-685800D03*
G01*
X503301Y-685800D03*
G01*
X11226800Y-7823200D03*
G01*
X11726799Y-7823200D03*
G01*
X12230100Y-7823200D03*
G01*
X12730099Y-7823200D03*
G01*
X9220200Y-7823200D03*
G01*
X9720199Y-7823200D03*
G01*
X8216900Y-7823200D03*
G01*
X8716899Y-7823200D03*
G01*
X10223500Y-7823200D03*
G01*
X10723499Y-7823200D03*
D14*
G01*
X11239500Y-520700D03*
G01*
X11239500Y-1282700D03*
G01*
X7112000Y-2095500D03*
G01*
X7874000Y-2095500D03*
G01*
X5029200Y-3402584D03*
G01*
X4267200Y-3402584D03*
G01*
X5029200Y-2946400D03*
G01*
X4267200Y-2946400D03*
G01*
X1587500Y-1219200D03*
G01*
X1587500Y-457200D03*
D15*
G01*
X3048000Y-6826808D03*
G01*
X3048000Y-5466791D03*
G01*
X3683000Y-5466791D03*
G01*
X3683000Y-6826808D03*
G01*
X5448300Y-5454091D03*
G01*
X5448300Y-6814108D03*
G01*
X4800600Y-6814108D03*
G01*
X4800600Y-5454091D03*
G01*
X7150100Y-5492191D03*
G01*
X7150100Y-6852208D03*
G01*
X6489700Y-6852208D03*
G01*
X6489700Y-5492191D03*
D16*
G01*
X5038699Y-4711700D03*
D17*
G01*
X5038699Y-4457700D03*
G01*
X5038699Y-4203700D03*
G01*
X5038699Y-3949700D03*
G01*
X4257700Y-3949700D03*
G01*
X4257700Y-4203700D03*
G01*
X4257700Y-4457700D03*
G01*
X4257700Y-4711700D03*
D16*
G01*
X6511899Y-4699000D03*
D17*
G01*
X6511899Y-4445000D03*
G01*
X6511899Y-4191000D03*
G01*
X6511899Y-3937000D03*
G01*
X5730900Y-3937000D03*
G01*
X5730900Y-4191000D03*
G01*
X5730900Y-4445000D03*
G01*
X5730900Y-4699000D03*
D16*
G01*
X3628999Y-4724400D03*
D17*
G01*
X3628999Y-4470400D03*
G01*
X3628999Y-4216400D03*
G01*
X3628999Y-3962400D03*
G01*
X2848000Y-3962400D03*
G01*
X2848000Y-4216400D03*
G01*
X2848000Y-4470400D03*
G01*
X2848000Y-4724400D03*
D18*
G01*
X2209800Y-7975600D03*
G01*
X1701800Y-7975600D03*
G01*
X1955800Y-7975600D03*
G01*
X4838700Y-7988300D03*
G01*
X4330700Y-7988300D03*
G01*
X4584700Y-7988300D03*
G01*
X7391400Y-7975600D03*
G01*
X6883400Y-7975600D03*
G01*
X7137400Y-7975600D03*
D19*
G01*
X901700Y-7950200D03*
D20*
G01*
X393700Y-7950200D03*
G01*
X647700Y-7950200D03*
D19*
G01*
X3505200Y-7962900D03*
D20*
G01*
X2997200Y-7962900D03*
G01*
X3251200Y-7962900D03*
D19*
G01*
X6121400Y-7962900D03*
D20*
G01*
X5613400Y-7962900D03*
G01*
X5867400Y-7962900D03*
D21*
G01*
X12585700Y-2882900D03*
G01*
X12585700Y-3136900D03*
G01*
X12585700Y-2628900D03*
D22*
G01*
X7721600Y-4089400D03*
D23*
G01*
X7721600Y-3835400D03*
G01*
X7721600Y-3581400D03*
G01*
X7721600Y-3327400D03*
G01*
X7721600Y-3073400D03*
G01*
X7721600Y-2819400D03*
G01*
X7721600Y-2565400D03*
G01*
X6959600Y-4089400D03*
G01*
X6959600Y-3835400D03*
G01*
X6959600Y-3581400D03*
G01*
X6959600Y-3327400D03*
G01*
X6959600Y-3073400D03*
G01*
X6959600Y-2819400D03*
G01*
X6959600Y-2565400D03*
D21*
G01*
X12592050Y-3898900D03*
G01*
X12592050Y-4152900D03*
G01*
X12592050Y-4406900D03*
G01*
X12592050Y-4660900D03*
G01*
X12592050Y-4914900D03*
G01*
X12592050Y-5168900D03*
G01*
X11576050Y-5168900D03*
G01*
X11576050Y-4914900D03*
G01*
X11576050Y-4660900D03*
G01*
X11576050Y-4406900D03*
G01*
X11576050Y-4152900D03*
G01*
X11576050Y-3898900D03*
G01*
X10782300Y-520700D03*
G01*
X8496300Y-520700D03*
G01*
X10782300Y-774700D03*
G01*
X10782300Y-1028700D03*
D24*
G01*
X10782300Y-5092700D03*
D21*
G01*
X8496300Y-5092674D03*
G01*
X8496300Y-774700D03*
G01*
X8496300Y-1028700D03*
G01*
X10782300Y-4838700D03*
G01*
X10782300Y-1282700D03*
G01*
X10782300Y-1536700D03*
G01*
X10782300Y-1790700D03*
G01*
X10782300Y-2044700D03*
G01*
X10782300Y-2298700D03*
G01*
X10782300Y-2552700D03*
G01*
X10782300Y-2806700D03*
G01*
X10782300Y-3060700D03*
G01*
X10782300Y-3314700D03*
G01*
X10782300Y-3568700D03*
G01*
X10782300Y-3822700D03*
G01*
X10782300Y-4076700D03*
G01*
X10782300Y-4330700D03*
G01*
X10782300Y-4584700D03*
G01*
X8496300Y-1282700D03*
G01*
X8496300Y-1536700D03*
G01*
X8496300Y-1790700D03*
G01*
X8496300Y-2044700D03*
G01*
X8496300Y-2298700D03*
G01*
X8496300Y-2552700D03*
G01*
X8496300Y-2806700D03*
G01*
X8496300Y-3060700D03*
G01*
X8496300Y-3314700D03*
G01*
X8496300Y-3568700D03*
G01*
X8496300Y-3822700D03*
G01*
X8496300Y-4076700D03*
G01*
X8496300Y-4330700D03*
G01*
X8496300Y-4584700D03*
G01*
X8496300Y-4838700D03*
G01*
X11099800Y-4127500D03*
G01*
X12179300Y-2882900D03*
G01*
X12369800Y-609600D03*
G01*
X10718800Y-6807200D03*
G01*
X7493000Y-800100D03*
G01*
X3632200Y-3568700D03*
G01*
X8178800Y-1790700D03*
G01*
X7315200Y-1206500D03*
G01*
X7988300Y-3835400D03*
G01*
X5473700Y-3505200D03*
G01*
X7924800Y-1498600D03*
G01*
X9766300Y-5461000D03*
G01*
X8178800Y-2032000D03*
G01*
X3898900Y-4470400D03*
G01*
X5029200Y-3708400D03*
G01*
X4140200Y-3708400D03*
G01*
X4102100Y-6515100D03*
G01*
X1028700Y-6832600D03*
G01*
X3924300Y-8293100D03*
G01*
X5930900Y-5080000D03*
G01*
X2641600Y-8369300D03*
G01*
X6883400Y-8623300D03*
G01*
X5397500Y-4152900D03*
G01*
X4838700Y-7429500D03*
G01*
X2476500Y-3733800D03*
G01*
X7391400Y-7277100D03*
G01*
X3098800Y-2501900D03*
G01*
X7797800Y-5791200D03*
D25*
G01*
X2959100Y-431800D03*
G01*
X6083300Y-2082800D03*
G01*
X2032000Y-2184400D03*
G01*
X381000Y-5308600D03*
M02*
